<svg width="2048" height="876" xmlns="http://www.w3.org/2000/svg" version="1.1">

 <g>
  <title>Layer 1</title>
  <path id="svg_1" fill="#e3eaf9" d="m519,0l23,0l22,4l14,5l11,6l12,9l10,9l10,10l10,13l13,19l16,23l13,19l16,23l11,16l16,23l22,32l16,23l15,22l14,20l13,19l16,23l11,16l16,23l11,16l9,13l345,0l20,-2l15,-5l9,-8l4,-8l1,-4l0,-19l-4,-10l-6,-7l-10,-5l-12,-3l-10,-1l-247,-1l-29,-3l-17,-3l-19,-5l-22,-8l-21,-11l-14,-10l-12,-11l-9,-11l-9,-14l-7,-15l-6,-21l-3,-22l0,-24l2,-18l5,-21l6,-16l9,-17l11,-14l15,-15l14,-10l16,-9l18,-8l21,-7l27,-6l31,-4l12,-1l842,0l31,3l23,4l27,7l25,9l23,11l16,10l16,12l12,11l8,8l13,17l10,17l8,19l6,21l3,18l1,11l0,25l-3,25l-6,22l-6,15l-10,19l-12,16l-11,12l-12,11l-15,11l-19,11l-23,11l-33,11l-27,6l-30,4l-12,1l-233,1l-1,211l-16,0l-24,-2l-50,-7l-40,-7l-25,-5l-2,-1l0,-320l390,-1l16,-3l16,-6l10,-7l9,-9l7,-14l2,-8l0,-20l-4,-13l-6,-10l-8,-8l-13,-8l-15,-5l-11,-2l-14,-1l-819,0l-14,1l-16,4l-10,6l-5,8l-2,7l0,16l3,10l7,8l11,5l13,3l13,1l248,1l29,3l25,5l18,5l24,10l15,9l10,8l10,9l11,14l9,16l7,21l3,17l1,10l0,25l-3,26l-5,20l-7,19l-9,16l-11,14l-12,12l-15,11l-16,9l-15,7l-24,8l-26,6l-20,3l-9,0l-45,-16l-49,-18l-58,-21l-48,-17l-41,-14l-49,-15l-41,-11l-40,-9l-35,-6l-32,-4l-23,-2l-20,-1l-58,0l-19,1l-12,0l-13,-18l-8,-12l-15,-22l-14,-20l-74,-109l-13,-19l-4,4l-11,16l-12,17l-42,60l-12,17l-84,120l-12,17l-42,60l-5,5l-23,12l-23,13l-28,15l-21,12l-25,14l-49,28l-27,15l-23,13l-26,14l-28,15l-27,14l-2,0l2,-5l13,-18l14,-20l120,-170l14,-20l13,-18l13,-19l13,-18l14,-20l84,-119l14,-20l72,-102l14,-20l24,-34l10,-13l13,-14l11,-9l12,-9l16,-8l13,-4l18,-3z"/>
  <path stroke="#fcfcfc" id="svg_2" fill="#ffffff" d="m519,0l23,0l22,4l14,5l11,6l12,9l10,9l10,10l10,13l13,19l16,23l13,19l16,23l11,16l16,23l22,32l16,23l15,22l14,20l13,19l16,23l11,16l16,23l11,16l9,13l345,0l20,-2l15,-5l9,-8l4,-8l1,-4l0,-19l-4,-10l-6,-7l-10,-5l-12,-3l-10,-1l-247,-1l-29,-3l-17,-3l-19,-5l-22,-8l-21,-11l-14,-10l-12,-11l-8,-10l0,-1l11,0l57,3l53,2l91,2l149,0l88,-2l75,-3l21,0l8,7l10,12l9,15l6,15l4,15l3,22l0,25l-3,26l-5,20l-7,19l-9,16l-11,14l-12,12l-15,11l-16,9l-15,7l-24,8l-26,6l-20,3l-9,0l-45,-16l-49,-18l-58,-21l-48,-17l-41,-14l-49,-15l-41,-11l-40,-9l-35,-6l-32,-4l-23,-2l-20,-1l-58,0l-19,1l-12,0l-13,-18l-8,-12l-15,-22l-14,-20l-74,-109l-13,-19l-4,4l-11,16l-12,17l-42,60l-12,17l-84,120l-12,17l-42,60l-5,5l-23,12l-23,13l-28,15l-21,12l-25,14l-49,28l-27,15l-23,13l-26,14l-28,15l-27,14l-2,0l2,-5l13,-18l14,-20l120,-170l14,-20l13,-18l13,-19l13,-18l14,-20l84,-119l14,-20l72,-102l14,-20l24,-34l10,-13l13,-14l11,-9l12,-9l16,-8l13,-4l18,-3z"/>
  <path stroke="#fcfcfc" id="svg_3" fill="#ffffff" d="m2035,139l3,1l5,18l3,18l1,11l0,25l-3,25l-6,22l-6,15l-10,19l-12,16l-11,12l-12,11l-15,11l-19,11l-23,11l-33,11l-27,6l-30,4l-12,1l-233,1l-1,211l-16,0l-24,-2l-50,-7l-40,-7l-25,-5l-2,-1l0,-320l390,-1l16,-3l16,-6l10,-7l9,-9l7,-14l2,-8l0,-23l18,-5l41,-11l45,-14l30,-11l14,-6z"/>
  <path stroke="#fcfcfc" id="svg_4" fill="#ffffff" d="m560,227l14,1l61,7l73,7l50,4l5,1l13,19l11,16l16,23l11,16l16,23l13,19l14,20l2,3l345,0l20,-2l15,-5l9,-8l4,-8l1,-4l0,-19l-4,-10l-6,-7l-10,-5l-12,-3l-10,-1l-247,-1l-29,-3l-17,-3l-19,-5l-22,-8l-21,-11l-14,-10l-12,-11l-8,-10l0,-1l11,0l57,3l53,2l91,2l149,0l88,-2l75,-3l21,0l8,7l10,12l9,15l6,15l4,15l3,22l0,25l-3,26l-5,20l-7,19l-9,16l-11,14l-12,12l-15,11l-16,9l-15,7l-24,8l-26,6l-20,3l-9,0l-45,-16l-49,-18l-58,-21l-48,-17l-41,-14l-49,-15l-41,-11l-40,-9l-35,-6l-32,-4l-23,-2l-20,-1l-58,0l-19,1l-12,0l-13,-18l-8,-12l-15,-22l-14,-20l-40,-59l-15,-22l0,-2z"/>
  <path id="svg_5" fill="#EEB037" d="m522,499l80,0l44,3l43,5l45,7l55,11l50,12l49,13l59,17l74,22l52,15l44,12l56,14l42,9l45,8l45,6l45,4l65,3l57,1l41,-1l47,-3l54,-6l53,-8l29,-5l5,0l-4,2l-52,16l-49,14l-52,13l-40,8l-40,6l-36,4l-43,3l-24,1l-92,0l-52,-3l-50,-5l-50,-7l-41,-7l-55,-11l-58,-13l-90,-21l-64,-14l-57,-11l-56,-9l-48,-6l-42,-4l-45,-3l-27,-1l-53,0l-44,2l-46,4l-40,5l-49,8l-60,12l-59,14l-58,15l-82,22l-38,10l-4,-1l26,-14l21,-12l50,-28l26,-14l29,-15l26,-13l31,-14l37,-15l36,-13l39,-12l44,-11l40,-8l39,-6l45,-5l32,-2z"/>
  <path stroke="#fcfcfc" id="svg_6" fill="#ffffff" d="m714,399l37,1l40,4l36,6l37,8l38,10l39,12l36,12l37,13l134,50l44,16l50,17l46,14l45,12l40,9l65,13l54,9l56,7l47,4l42,2l47,1l-4,2l-49,7l-39,4l-43,3l-52,2l-66,0l-47,-2l-48,-4l-46,-6l-40,-7l-34,-7l-60,-15l-51,-15l-60,-19l-50,-16l-53,-16l-52,-14l-47,-11l-52,-10l-44,-7l-56,-7l-47,-4l-44,-2l-60,0l-39,2l-42,4l-42,6l-42,8l-40,10l-4,-1l28,-16l34,-18l32,-15l32,-13l41,-14l33,-9l39,-8l33,-5l39,-4l34,-2l38,-1z"/>
  <path id="svg_7" fill="#e3eaf9" d="m519,0l23,0l22,4l14,5l11,6l12,9l10,9l10,10l10,13l13,19l16,23l13,19l16,23l11,16l16,23l22,32l16,23l8,12l-4,1l-50,-4l-73,-7l-70,-8l-7,-2l-17,-25l-13,-19l-4,4l-11,16l-12,17l-56,-9l-58,-11l-47,-10l-3,-1l2,-5l13,-18l36,-51l14,-20l24,-34l10,-13l13,-14l11,-9l12,-9l16,-8l13,-4l18,-3z"/>
  <path stroke="#ffffff" id="svg_8" fill="#ffffff" d="m1064,730l116,0l-18,24l-10,13l-79,1l-14,3l-11,6l-8,9l-3,7l-1,5l0,8l3,10l4,6l1,3l16,8l9,2l62,1l0,-20l-73,0l2,-5l9,-10l9,-11l5,-6l2,-1l74,0l17,1l0,89l-111,0l-16,-3l-12,-4l-12,-6l-13,-10l-9,-10l-7,-12l-4,-12l-1,-6l0,-20l4,-15l6,-11l9,-11l13,-10l15,-7l14,-4l12,-2z"/>
  <path stroke="#ffffff" id="svg_9" fill="#ffffff" d="m1491,728l48,0l21,3l17,5l16,8l12,11l6,8l5,11l3,11l1,9l0,16l-3,16l-5,12l-7,10l-8,8l-13,8l-13,5l-17,4l-26,3l-25,0l-27,-3l-17,-4l-15,-6l-11,-7l-11,-11l-8,-16l-3,-11l-1,-7l0,-19l3,-16l5,-11l6,-9l10,-10l14,-8l18,-6l16,-3l9,-1zm5,37l-16,2l-11,4l-6,4l-6,8l-2,7l0,23l3,9l7,8l11,5l19,3l39,0l15,-2l10,-3l9,-6l5,-8l2,-7l0,-21l-4,-11l-6,-7l-11,-5l-10,-2l-10,-1l-38,0z"/>
  <path stroke="#ffffff" id="svg_10" fill="#ffffff" d="m1229,730l106,0l14,2l16,5l10,5l10,9l6,9l3,7l1,5l0,18l-4,13l-8,11l-9,7l-12,5l-3,0l0,2l4,2l29,29l7,8l5,6l-60,0l-13,-15l-9,-11l-8,-10l-2,-1l-66,0l-1,37l-45,0l0,-73l129,-1l9,-2l8,-5l2,-4l0,-9l-4,-6l-8,-4l-7,-1l-128,-1l4,-7l10,-12l12,-16l2,-2z"/>
  <path stroke="#ffffff" id="svg_11" fill="#ffffff" d="m1881,730l104,0l16,3l13,5l11,7l8,8l7,13l2,8l0,19l-4,13l-7,10l-9,8l-16,8l-18,4l-11,1l-80,0l0,36l-44,0l-1,-5l0,-62l1,-6l127,-1l10,-3l5,-5l2,-8l-3,-9l-6,-4l-9,-2l-126,-1l4,-6l22,-28l2,-3z"/>
  <path stroke="#ffffff" id="svg_12" fill="#ffffff" d="m1640,730l44,0l1,84l2,10l6,7l10,4l12,2l41,0l13,-3l8,-5l4,-6l1,-4l1,-89l45,0l0,92l-3,13l-6,12l-9,10l-14,9l-18,6l-17,3l-11,1l-23,0l-28,-3l-19,-5l-16,-8l-9,-7l-7,-9l-5,-10l-3,-14l0,-90z"/>
  <path stroke="#fcfcfc" id="svg_13" fill="#EEB037" d="m1701,637l2,1l-2,-1z"/>
  <path stroke="#fcfcfc" id="svg_14" fill="#EEB037" d="m0,682"/>
  <path stroke="#fcfcfc" id="svg_15" fill="#52658D" d="m1,663"/>
  <path stroke="#fcfcfc" id="svg_16" fill="#52658D" d="m330,505"/>
  <path stroke="#ffffff" id="svg_17" d="m2075.57597,969.93665l0.56913,0l0.17587,-0.76392l0.17587,0.76392l0.56913,0l-0.46044,0.47212l0.17588,0.76392l-0.46044,-0.47214l-0.46044,0.47214l0.17588,-0.76392l-0.46044,-0.47212z" fill="#ffffff"/>
  <path stroke="#ffffff" id="svg_18" d="m1402.95585,864.24335l0.56913,0l0.17587,-0.54067l0.17587,0.54067l0.56913,0l-0.46044,0.33415l0.17588,0.54067l-0.46044,-0.33416l-0.46044,0.33416l0.17588,-0.54067l-0.46044,-0.33415z" fill="#ffffff"/>
 </g>
</svg>