<svg xmlns="http://www.w3.org/2000/svg" version="1.1" viewBox="0 0 2048 876" width="1593" height="682">
<path transform="translate(519)" d="m0 0h23l22 4 14 5 11 6 12 9 10 9 10 10 10 13 13 19 16 23 13 19 16 23 11 16 16 23 22 32 16 23 15 22 14 20 13 19 16 23 11 16 16 23 11 16 9 13h345l20-2 15-5 9-8 4-8 1-4v-19l-4-10-6-7-10-5-12-3-10-1-247-1-29-3-17-3-19-5-22-8-21-11-14-10-12-11-9-11-9-14-7-15-6-21-3-22v-24l2-18 5-21 6-16 9-17 11-14 15-15 14-10 16-9 18-8 21-7 27-6 31-4 12-1h842l31 3 23 4 27 7 25 9 23 11 16 10 16 12 12 11 8 8 13 17 10 17 8 19 6 21 3 18 1 11v25l-3 25-6 22-6 15-10 19-12 16-11 12-12 11-15 11-19 11-23 11-33 11-27 6-30 4-12 1-233 1-1 211h-16l-24-2-50-7-40-7-25-5-2-1v-320l390-1 16-3 16-6 10-7 9-9 7-14 2-8v-20l-4-13-6-10-8-8-13-8-15-5-11-2-14-1h-819l-14 1-16 4-10 6-5 8-2 7v16l3 10 7 8 11 5 13 3 13 1 248 1 29 3 25 5 18 5 24 10 15 9 10 8 10 9 11 14 9 16 7 21 3 17 1 10v25l-3 26-5 20-7 19-9 16-11 14-12 12-15 11-16 9-15 7-24 8-26 6-20 3h-9l-45-16-49-18-58-21-48-17-41-14-49-15-41-11-40-9-35-6-32-4-23-2-20-1h-58l-19 1h-12l-13-18-8-12-15-22-14-20-74-109-13-19-4 4-11 16-12 17-42 60-12 17-84 120-12 17-42 60-5 5-23 12-23 13-28 15-21 12-25 14-49 28-27 15-23 13-26 14-28 15-27 14h-2l2-5 13-18 14-20 120-170 14-20 13-18 13-19 13-18 14-20 84-119 14-20 72-102 14-20 24-34 10-13 13-14 11-9 12-9 16-8 13-4z" fill="#52658D"/>
<path transform="translate(519)" d="m0 0h23l22 4 14 5 11 6 12 9 10 9 10 10 10 13 13 19 16 23 13 19 16 23 11 16 16 23 22 32 16 23 15 22 14 20 13 19 16 23 11 16 16 23 11 16 9 13h345l20-2 15-5 9-8 4-8 1-4v-19l-4-10-6-7-10-5-12-3-10-1-247-1-29-3-17-3-19-5-22-8-21-11-14-10-12-11-8-10v-1h11l57 3 53 2 91 2h149l88-2 75-3h21l8 7 10 12 9 15 6 15 4 15 3 22v25l-3 26-5 20-7 19-9 16-11 14-12 12-15 11-16 9-15 7-24 8-26 6-20 3h-9l-45-16-49-18-58-21-48-17-41-14-49-15-41-11-40-9-35-6-32-4-23-2-20-1h-58l-19 1h-12l-13-18-8-12-15-22-14-20-74-109-13-19-4 4-11 16-12 17-42 60-12 17-84 120-12 17-42 60-5 5-23 12-23 13-28 15-21 12-25 14-49 28-27 15-23 13-26 14-28 15-27 14h-2l2-5 13-18 14-20 120-170 14-20 13-18 13-19 13-18 14-20 84-119 14-20 72-102 14-20 24-34 10-13 13-14 11-9 12-9 16-8 13-4z" fill="#042449"/>
<path transform="translate(2035,139)" d="m0 0 3 1 5 18 3 18 1 11v25l-3 25-6 22-6 15-10 19-12 16-11 12-12 11-15 11-19 11-23 11-33 11-27 6-30 4-12 1-233 1-1 211h-16l-24-2-50-7-40-7-25-5-2-1v-320l390-1 16-3 16-6 10-7 9-9 7-14 2-8v-23l18-5 41-11 45-14 30-11z" fill="#042449"/>
<path transform="translate(560,227)" d="m0 0 14 1 61 7 73 7 50 4 5 1 13 19 11 16 16 23 11 16 16 23 13 19 14 20 2 3h345l20-2 15-5 9-8 4-8 1-4v-19l-4-10-6-7-10-5-12-3-10-1-247-1-29-3-17-3-19-5-22-8-21-11-14-10-12-11-8-10v-1h11l57 3 53 2 91 2h149l88-2 75-3h21l8 7 10 12 9 15 6 15 4 15 3 22v25l-3 26-5 20-7 19-9 16-11 14-12 12-15 11-16 9-15 7-24 8-26 6-20 3h-9l-45-16-49-18-58-21-48-17-41-14-49-15-41-11-40-9-35-6-32-4-23-2-20-1h-58l-19 1h-12l-13-18-8-12-15-22-14-20-40-59-15-22z" fill="#042449"/>
<path transform="translate(522,499)" d="m0 0h80l44 3 43 5 45 7 55 11 50 12 49 13 59 17 74 22 52 15 44 12 56 14 42 9 45 8 45 6 45 4 65 3 57 1 41-1 47-3 54-6 53-8 29-5h5l-4 2-52 16-49 14-52 13-40 8-40 6-36 4-43 3-24 1h-92l-52-3-50-5-50-7-41-7-55-11-58-13-90-21-64-14-57-11-56-9-48-6-42-4-45-3-27-1h-53l-44 2-46 4-40 5-49 8-60 12-59 14-58 15-82 22-38 10-4-1 26-14 21-12 50-28 26-14 29-15 26-13 31-14 37-15 36-13 39-12 44-11 40-8 39-6 45-5z" fill="#EEB037"/>
<path transform="translate(714,399)" d="m0 0 37 1 40 4 36 6 37 8 38 10 39 12 36 12 37 13 134 50 44 16 50 17 46 14 45 12 40 9 65 13 54 9 56 7 47 4 42 2 47 1-4 2-49 7-39 4-43 3-52 2h-66l-47-2-48-4-46-6-40-7-34-7-60-15-51-15-60-19-50-16-53-16-52-14-47-11-52-10-44-7-56-7-47-4-44-2h-60l-39 2-42 4-42 6-42 8-40 10-4-1 28-16 34-18 32-15 32-13 41-14 33-9 39-8 33-5 39-4 34-2z" fill="#05254A"/>
<path transform="translate(519)" d="m0 0h23l22 4 14 5 11 6 12 9 10 9 10 10 10 13 13 19 16 23 13 19 16 23 11 16 16 23 22 32 16 23 8 12-4 1-50-4-73-7-70-8-7-2-17-25-13-19-4 4-11 16-12 17-56-9-58-11-47-10-3-1 2-5 13-18 36-51 14-20 24-34 10-13 13-14 11-9 12-9 16-8 13-4z" fill="#52658D"/>
<path transform="translate(1064,730)" d="m0 0h116l-18 24-10 13-79 1-14 3-11 6-8 9-3 7-1 5v8l3 10 4 6 1 3 16 8 9 2 62 1v-20h-73l2-5 9-10 9-11 5-6 2-1h74l17 1v89h-111l-16-3-12-4-12-6-13-10-9-10-7-12-4-12-1-6v-20l4-15 6-11 9-11 13-10 15-7 14-4z" fill="#07264B"/>
<path transform="translate(1491,728)" d="m0 0h48l21 3 17 5 16 8 12 11 6 8 5 11 3 11 1 9v16l-3 16-5 12-7 10-8 8-13 8-13 5-17 4-26 3h-25l-27-3-17-4-15-6-11-7-11-11-8-16-3-11-1-7v-19l3-16 5-11 6-9 10-10 14-8 18-6 16-3zm5 37-16 2-11 4-6 4-6 8-2 7v23l3 9 7 8 11 5 19 3h39l15-2 10-3 9-6 5-8 2-7v-21l-4-11-6-7-11-5-10-2-10-1z" fill="#05254A"/>
<path transform="translate(1229,730)" d="m0 0h106l14 2 16 5 10 5 10 9 6 9 3 7 1 5v18l-4 13-8 11-9 7-12 5h-3v2l4 2 29 29 7 8 5 6h-60l-13-15-9-11-8-10-2-1h-66l-1 37h-45v-73l129-1 9-2 8-5 2-4v-9l-4-6-8-4-7-1-128-1 4-7 10-12 12-16z" fill="#042449"/>
<path transform="translate(1881,730)" d="m0 0h104l16 3 13 5 11 7 8 8 7 13 2 8v19l-4 13-7 10-9 8-16 8-18 4-11 1h-80v36h-44l-1-5v-62l1-6 127-1 10-3 5-5 2-8-3-9-6-4-9-2-126-1 4-6 22-28z" fill="#06254A"/>
<path transform="translate(1640,730)" d="m0 0h44l1 84 2 10 6 7 10 4 12 2h41l13-3 8-5 4-6 1-4 1-89h45v92l-3 13-6 12-9 10-14 9-18 6-17 3-11 1h-23l-28-3-19-5-16-8-9-7-7-9-5-10-3-14z" fill="#05254A"/>
<path transform="translate(1701,637)" d="m0 0 2 1z" fill="#EEB037"/>
<path transform="translate(0,682)" d="m0 0" fill="#EEB037"/>
<path transform="translate(1,663)" d="m0 0" fill="#52658D"/>
<path transform="translate(330,505)" d="m0 0" fill="#52658D"/>
</svg>